<svg width="24" height="24" viewBox="0 0 24 24" fill="none" xmlns="http://www.w3.org/2000/svg">
<path d="M4.54514 12.95L11.3784 19.6283C11.5724 19.8179 11.6694 19.9127 11.7773 19.9565C11.9201 20.0145 12.0799 20.0145 12.2227 19.9565C12.3306 19.9127 12.4276 19.8179 12.6216 19.6283L19.4549 12.95C21.2938 11.1528 21.519 8.26955 19.9815 6.20787L19.5825 5.6729C17.6946 3.14135 13.7895 3.5551 12.4723 6.42622C12.2868 6.83051 11.7132 6.83051 11.5277 6.42622C10.2105 3.5551 6.3054 3.14135 4.41749 5.6729L4.01853 6.20787C2.48101 8.26955 2.70622 11.1528 4.54514 12.95Z" fill="#392111"/>
</svg>
